<?xml version="1.0" encoding="UTF-8" standalone="no"?>
<!-- Created with Inkscape (http://www.inkscape.org/) -->

<svg
   width="210.07629mm"
   height="209.18643mm"
   viewBox="0 0 210.07629 209.18643"
   version="1.1"
   id="svg1"
   xml:space="preserve"
   xmlns:inkscape="http://www.inkscape.org/namespaces/inkscape"
   xmlns:sodipodi="http://sodipodi.sourceforge.net/DTD/sodipodi-0.dtd"
   xmlns="http://www.w3.org/2000/svg"
   xmlns:svg="http://www.w3.org/2000/svg"><sodipodi:namedview
     id="namedview1"
     pagecolor="#505050"
     bordercolor="#eeeeee"
     borderopacity="1"
     inkscape:showpageshadow="0"
     inkscape:pageopacity="0"
     inkscape:pagecheckerboard="0"
     inkscape:deskcolor="#505050"
     inkscape:document-units="mm"
     inkscape:zoom="2.3836482"
     inkscape:cx="680.25977"
     inkscape:cy="239.54877"
     inkscape:window-width="3840"
     inkscape:window-height="2081"
     inkscape:window-x="-9"
     inkscape:window-y="-9"
     inkscape:window-maximized="1"
     inkscape:current-layer="layer1" /><defs
     id="defs1" /><g
     inkscape:label="Layer 1"
     inkscape:groupmode="layer"
     id="layer1"
     transform="translate(0.0381,0.0381)"><path
       id="rect1"
       style="fill:#ffffff;stroke:#000000;stroke-width:0.0762;stroke-linecap:round;stroke-linejoin:round;paint-order:markers fill stroke"
       d="M 0,0 V 209.11023 H 210.0001 V 0 Z m 58.50599,33.729207 c 8.542923,-0.159606 17.483586,0.931106 19.603971,1.066602 8.289942,0.529738 11.576836,3.934306 15.866732,4.451408 13.664427,1.647099 22.362817,7.855466 44.881497,15.972668 20.19565,7.279831 53.2005,45.579175 45.29904,96.620975 -0.14751,0.9529 8.03494,7.7044 -2.18281,13.30203 -11.43442,6.26417 -15.06557,1.38015 -18.24126,4.50309 -3.83314,3.76946 -14.90826,1.72444 -23.1004,2.2505 -3.73798,0.24003 -5.10654,2.17224 -7.53546,2.7249 -5.75381,1.30919 -19.31372,-1.69425 -10.47378,-10.99778 1.17458,-1.23617 -14.82564,4.32922 -13.35422,-6.02237 1.17534,-8.26864 17.54363,-5.23689 17.54363,-5.23689 0.0555,-1.01791 -0.0764,-2.00912 -1.04696,-2.88044 0,0 -4.32204,-2.06966 -7.59385,-6.48281 -3.12062,-4.2092 -4.14549,-9.48676 -4.14549,-9.48676 -5.38725,21.32749 -8.65846,33.90708 -11.30318,36.65564 -3.191851,3.31717 -5.56273,6.49833 -15.67605,4.7129 -8.309132,-1.46692 -6.746959,-13.22758 6.249748,-13.61571 4.480425,-21.17314 3.785061,-36.80486 -2.094963,-46.88499 -16.183984,6.38661 -26.708153,-5.48396 -40.58512,-13.51391 -4.297935,-2.487017 -17.092123,-1.54283 -20.16311,-1.658295 -5.013555,-0.188503 -4.617898,-3.425554 -4.189408,-5.760889 0.978629,-5.333677 5.071317,-7.433298 13.155269,-7.593335 11.162769,-0.220986 32.290019,9.120891 32.290019,9.120891 1.207629,-6.678648 0.159405,-13.106092 -3.724321,-20.195667 -1.185568,-2.164204 -12.297065,2.920717 -16.584,6.623368 C 43.843181,87.932517 32.5519,84.967278 33.0724,73.287 c 0.13585,-3.048643 -3.406039,-2.633953 -3.766178,-10.638111 -0.23251,-5.167716 1.832492,-9.746446 1.671732,-10.309448 -0.35662,-1.248978 -5.780189,-3.978024 -5.760889,-4.97489 0.01264,-0.653926 4.713408,-1.047482 4.713408,-1.047482 0,0 -8.581812,-9.882305 -6.807853,-11.78326 1.284618,-1.376579 19.524212,2.418524 21.99504,1.309481 3.280072,-1.472273 8.262576,-2.018319 13.38833,-2.114083 z"
       inkscape:export-filename="Cat.svg"
       inkscape:export-xdpi="96"
       inkscape:export-ydpi="96" /></g></svg>
